<?xml version="1.0" standalone="no"?>
<!DOCTYPE svg PUBLIC "-//W3C//DTD SVG 20010904//EN"
 "http://www.w3.org/TR/2001/REC-SVG-20010904/DTD/svg10.dtd">
<svg version="1.0" xmlns="http://www.w3.org/2000/svg"
 width="170.000000pt" height="194.000000pt" viewBox="0 0 170.000000 194.000000"
 preserveAspectRatio="xMidYMid meet">

<g transform="translate(0.000000,194.000000) scale(0.100000,-0.100000)"
fill="#000000" stroke="none">
<path d="M425 1690 l-410 -238 -2 -483 -2 -484 410 -235 c225 -129 418 -235
429 -235 10 0 203 106 429 235 l411 235 -3 484 -2 483 -413 239 c-227 132
-418 239 -425 238 -7 0 -196 -108 -422 -239z m793 -37 c197 -113 369 -215 385
-225 l27 -20 -2 -445 -3 -445 -388 -223 -387 -223 -388 223 -387 223 -3 446
-2 445 27 18 c75 50 740 432 751 433 8 0 174 -93 370 -207z"/>
<path d="M753 1577 c-69 -40 -73 -44 -73 -77 0 -34 -3 -38 -87 -85 l-88 -50
-3 -86 -3 -86 -34 -16 -35 -17 0 -92 0 -93 77 -43 c66 -37 81 -42 101 -32 20
9 37 3 122 -45 54 -30 103 -55 110 -55 7 0 56 25 110 55 85 48 102 54 122 45
20 -10 35 -5 100 32 l77 42 3 89 3 89 -37 22 -37 21 -3 85 -3 85 -87 50 c-85
47 -88 51 -88 85 0 33 -4 37 -76 78 -42 23 -82 42 -88 41 -6 -1 -44 -20 -83
-42z m143 -23 c24 -14 44 -28 44 -30 0 -2 -22 -15 -50 -29 l-50 -25 -50 25
c-27 14 -50 27 -50 30 0 7 85 55 98 55 7 0 33 -12 58 -26z m-66 -175 c0 -34
-4 -59 -10 -59 -6 0 -33 11 -60 25 l-50 25 0 66 0 65 60 -32 60 -32 0 -58z
m140 57 l0 -65 -54 -30 c-29 -17 -56 -31 -60 -31 -3 0 -6 29 -6 64 l0 65 53
29 c28 16 55 30 60 31 4 0 7 -28 7 -63z m-288 -41 c-4 -32 -1 -36 27 -46 17
-6 31 -15 31 -21 0 -5 5 -6 10 -3 6 3 10 1 10 -4 0 -6 3 -10 8 -9 10 3 55 -22
65 -36 5 -8 9 -8 15 0 9 14 54 39 65 36 4 -1 7 3 7 9 0 5 5 7 10 4 6 -3 10 -2
10 3 0 6 13 14 28 20 25 9 28 14 24 46 -6 47 12 47 98 -2 l65 -38 3 -72 c3
-77 -5 -87 -47 -60 -15 9 -31 4 -95 -31 l-76 -42 0 -80 c0 -58 4 -85 15 -95 8
-9 15 -12 15 -8 0 4 10 -3 22 -15 19 -21 20 -24 4 -33 -9 -5 -24 -17 -34 -27
-9 -10 -27 -21 -38 -25 -12 -4 -31 -15 -43 -25 -22 -19 -61 -20 -83 -2 -7 7
-37 27 -66 46 -69 43 -67 40 -43 66 12 13 21 19 21 15 0 -4 7 -1 15 8 11 10
15 37 15 94 l0 80 -77 42 c-63 35 -80 40 -95 31 -41 -26 -49 -16 -46 61 l3 72
65 38 c84 48 97 48 92 3z m-56 -199 c3 -8 19 -20 35 -26 16 -7 29 -16 29 -20
0 -11 -88 -60 -106 -60 -8 0 -22 4 -32 9 -9 5 -29 14 -44 20 -41 16 -35 43 15
68 49 25 95 29 103 9z m522 -16 c28 -17 52 -32 52 -34 0 -7 -92 -56 -105 -56
-16 0 -105 50 -105 58 0 6 85 57 100 61 3 0 29 -13 58 -29z m-580 -185 l3 -66
-23 12 c-91 48 -98 56 -98 112 0 30 3 57 7 60 3 4 29 -6 57 -23 l51 -29 3 -66z
m152 60 l0 -65 -52 -27 c-29 -15 -56 -29 -60 -31 -5 -2 -8 26 -8 61 l0 65 53
31 c28 17 55 31 60 31 4 0 7 -29 7 -65z m305 38 l54 -28 1 -67 c0 -38 -3 -68
-7 -68 -5 0 -32 14 -60 30 l-53 30 0 65 c0 36 2 65 5 65 3 0 30 -12 60 -27z
m205 -38 l0 -65 -52 -27 c-29 -15 -56 -29 -60 -31 -5 -2 -8 27 -8 65 l0 69 53
26 c28 15 55 27 60 27 4 1 7 -28 7 -64z"/>
<path d="M839 762 c-15 -2 -43 -18 -63 -35 -29 -25 -39 -43 -47 -88 -13 -65 1
-151 30 -185 23 -29 74 -54 108 -54 36 0 93 38 115 78 l18 30 -30 4 c-22 3
-31 0 -36 -14 -17 -53 -88 -66 -123 -22 -25 32 -36 118 -22 171 13 46 24 58
63 68 22 6 33 1 59 -24 23 -24 36 -30 54 -25 23 6 24 7 10 35 -22 42 -81 68
-136 61z"/>
<path d="M1172 755 c-61 -19 -82 -41 -82 -86 0 -53 41 -88 120 -103 53 -9 80
-32 80 -66 0 -64 -99 -80 -148 -25 -19 23 -26 25 -50 17 l-27 -9 36 -35 c26
-27 47 -38 82 -43 56 -9 82 -3 128 28 31 21 34 27 34 72 0 45 -3 51 -34 72
-19 13 -53 26 -75 30 -25 4 -52 17 -69 35 -27 26 -28 30 -14 51 11 16 26 23
61 25 41 3 47 0 57 -22 10 -21 17 -24 38 -19 14 3 27 7 29 9 9 7 -32 53 -56
62 -50 19 -67 21 -110 7z"/>
<path d="M350 728 c0 -13 9 -70 20 -128 10 -58 20 -123 22 -145 3 -37 5 -40
33 -40 29 0 31 3 43 60 15 66 25 90 38 90 5 0 10 -11 12 -25 2 -14 10 -49 18
-77 14 -48 18 -53 45 -53 27 0 29 3 29 38 0 20 9 83 20 140 11 56 20 116 20
133 0 26 -3 30 -22 27 -21 -3 -24 -12 -38 -115 -7 -62 -17 -113 -21 -113 -4 0
-18 32 -30 70 -28 89 -46 90 -73 5 -11 -33 -21 -62 -23 -64 -8 -11 -14 13 -29
112 -16 101 -18 107 -40 107 -18 0 -24 -6 -24 -22z"/>
</g>
</svg>
