<?xml version="1.0" standalone="no"?>
<!DOCTYPE svg PUBLIC "-//W3C//DTD SVG 20010904//EN"
 "http://www.w3.org/TR/2001/REC-SVG-20010904/DTD/svg10.dtd">
<svg version="1.0" xmlns="http://www.w3.org/2000/svg"
 width="393.000000pt" height="422.000000pt" viewBox="0 0 393.000000 422.000000"
 preserveAspectRatio="xMidYMid meet">

<g transform="translate(0.000000,422.000000) scale(0.100000,-0.100000)"
fill="#000000" stroke="none">
<path d="M1478 3149 l-418 -241 0 -487 0 -487 420 -242 420 -242 420 242 420
242 0 487 0 487 -410 236 c-226 130 -416 239 -423 241 -6 3 -200 -104 -429
-236z m812 -68 l375 -218 0 -443 0 -444 -378 -218 c-208 -120 -382 -218 -387
-218 -5 0 -179 98 -387 218 l-378 218 0 444 0 444 375 217 c206 120 382 218
390 218 8 0 184 -98 390 -218z"/>
<path d="M1813 2788 c-70 -38 -73 -41 -73 -76 0 -36 -2 -38 -90 -87 l-90 -50
0 -82 0 -81 -35 -22 -35 -22 0 -91 0 -92 80 -43 c67 -36 83 -41 100 -32 18 10
36 3 121 -44 54 -31 104 -56 109 -56 5 0 55 25 109 56 85 47 103 54 121 44 17
-9 33 -4 100 32 l80 43 1 83 c1 45 2 86 3 92 1 5 -15 18 -34 29 l-35 18 -3 84
-3 85 -89 49 c-88 49 -90 51 -90 87 0 35 -3 38 -76 77 -41 23 -81 41 -87 40
-7 0 -45 -19 -84 -41z m141 -24 c25 -14 46 -27 46 -30 0 -2 -22 -15 -50 -29
l-50 -25 -51 26 c-56 28 -56 28 -1 60 48 29 51 29 106 -2z m-74 -174 l0 -60
-50 25 -50 25 0 60 0 60 50 -25 50 -25 0 -60z m140 50 l0 -60 -50 -25 -50 -25
0 60 0 60 48 24 c26 14 48 25 50 26 1 0 2 -27 2 -60z m-280 -43 c0 -31 5 -36
75 -75 41 -23 80 -42 85 -42 5 0 44 19 85 42 70 39 75 44 75 76 0 18 3 32 8
30 4 -1 35 -18 70 -37 l62 -34 0 -64 0 -63 -24 15 c-22 15 -27 13 -105 -31
l-82 -46 3 -91 3 -91 39 -22 38 -22 -82 -46 c-45 -25 -86 -46 -90 -46 -4 0
-45 21 -90 46 l-82 46 38 22 39 22 3 97 c2 64 -1 97 -8 97 -6 0 -43 18 -82 40
-67 38 -72 40 -94 25 l-24 -15 0 63 0 63 63 36 c34 20 65 36 70 37 4 1 7 -14
7 -32z m-2 -230 c9 -7 0 -17 -38 -39 l-51 -29 -49 28 c-28 15 -50 30 -50 33 0
3 21 17 48 31 l47 25 40 -19 c22 -11 46 -24 53 -30z m512 -7 c0 -3 -22 -18
-50 -33 l-49 -28 -52 30 -51 29 23 15 c71 45 78 46 130 18 27 -14 49 -28 49
-31z m-664 -66 l44 -26 0 -59 0 -59 -52 30 c-53 29 -53 29 -56 85 -3 64 1 66
64 29z m184 -31 l0 -58 -51 -27 -50 -26 3 61 c3 60 4 62 43 84 22 12 43 23 48
23 4 0 7 -26 7 -57z m315 34 c39 -22 40 -24 43 -84 l3 -61 -50 26 -51 27 0 58
c0 31 3 57 8 57 4 0 25 -11 47 -23z m193 -32 c-3 -56 -3 -56 -55 -85 l-53 -30
0 59 c0 59 0 59 43 85 63 38 68 35 65 -29z"/>
<path d="M1800 938 c-64 -33 -93 -94 -94 -196 0 -89 16 -145 53 -186 52 -56
144 -73 211 -37 39 20 99 107 84 120 -5 5 -25 11 -44 15 -33 6 -36 3 -55 -32
-21 -39 -46 -49 -91 -38 -47 12 -74 115 -55 207 14 66 34 89 77 89 30 0 64
-27 76 -60 2 -5 21 -5 46 2 37 9 42 13 36 32 -30 92 -147 133 -244 84z"/>
<path d="M2224 941 c-23 -10 -49 -29 -58 -42 -23 -33 -21 -100 5 -133 26 -33
46 -44 127 -67 36 -10 73 -26 83 -35 22 -20 25 -57 6 -73 -41 -34 -140 -18
-160 26 -10 22 -15 23 -51 17 -23 -3 -43 -8 -46 -11 -11 -10 37 -79 68 -96 40
-24 134 -33 187 -18 55 15 84 40 99 86 28 81 -18 141 -136 176 -40 12 -81 29
-90 37 -39 33 -6 82 55 82 28 0 41 -7 60 -31 22 -29 27 -31 66 -24 47 8 49 15
21 60 -38 62 -153 84 -236 46z"/>
<path d="M1250 933 c0 -10 14 -109 32 -220 l32 -203 41 0 41 0 25 103 25 102
25 -100 25 -100 41 -3 42 -3 7 48 c4 26 19 125 34 218 l26 170 -39 3 c-21 2
-41 2 -43 0 -2 -2 -11 -69 -21 -149 -14 -123 -18 -139 -26 -109 -34 135 -36
140 -71 140 -33 0 -33 0 -57 -87 -15 -54 -25 -78 -26 -63 -7 62 -25 208 -30
238 -5 30 -8 32 -44 32 -30 0 -39 -4 -39 -17z"/>
</g>
</svg>
