<?xml version="1.0" standalone="no"?>
<!DOCTYPE svg PUBLIC "-//W3C//DTD SVG 20010904//EN"
 "http://www.w3.org/TR/2001/REC-SVG-20010904/DTD/svg10.dtd">
<svg version="1.0" xmlns="http://www.w3.org/2000/svg"
 width="170.000000pt" height="249.000000pt" viewBox="0 0 170.000000 249.000000"
 preserveAspectRatio="xMidYMid meet">

<g transform="translate(0.000000,249.000000) scale(0.100000,-0.100000)"
fill="#000000" stroke="none">
<path d="M425 2240 l-410 -238 -2 -483 -2 -484 410 -235 c225 -129 418 -235
429 -235 10 0 203 106 429 235 l411 235 -3 484 -2 483 -413 239 c-227 132
-418 239 -425 238 -7 0 -196 -108 -422 -239z m821 -57 l374 -218 -2 -450 -3
-450 -375 -217 c-206 -119 -382 -217 -390 -217 -8 0 -184 98 -390 217 l-375
218 -3 450 -2 450 382 222 c211 122 389 220 396 217 8 -3 182 -103 388 -222z"/>
<path d="M763 1889 c-70 -39 -73 -42 -73 -77 0 -36 -2 -38 -90 -86 l-90 -49 0
-82 0 -82 -40 -27 -41 -27 3 -87 3 -87 75 -43 c60 -34 81 -42 107 -37 26 5 50
-5 132 -51 l101 -56 101 56 c82 46 106 56 132 51 26 -5 47 3 107 37 l75 43 3
91 3 92 -38 19 -38 20 -3 85 -3 85 -90 49 c-88 48 -90 50 -87 84 3 33 0 36
-72 77 -41 24 -82 43 -90 43 -8 0 -48 -19 -87 -41z m143 -25 c24 -14 44 -28
44 -30 0 -2 -22 -15 -50 -29 l-50 -25 -50 25 c-27 14 -50 27 -50 30 0 7 85 55
98 55 7 0 33 -12 58 -26z m-126 -89 l50 -25 0 -61 0 -60 -52 28 -53 28 -3 58
c-2 31 0 57 3 57 3 0 28 -11 55 -25z m198 -32 l-3 -58 -52 -28 -53 -28 0 60 0
61 48 24 c26 14 51 25 55 26 4 0 7 -26 5 -57z m-286 -49 c3 -33 8 -38 81 -77
l77 -42 78 42 c72 39 77 44 80 77 2 20 6 36 10 35 4 0 36 -17 72 -37 l65 -38
3 -62 c2 -34 0 -62 -3 -62 -3 0 -16 6 -28 14 -20 14 -29 11 -104 -30 l-83 -46
0 -91 0 -92 41 -23 c22 -13 39 -25 37 -26 -1 -2 -40 -24 -85 -50 l-83 -46 -82
46 c-46 26 -85 48 -86 50 -2 1 15 13 37 26 l41 23 0 92 0 91 -82 45 c-76 41
-85 44 -105 31 -12 -8 -25 -14 -28 -14 -3 0 -5 28 -3 62 l3 62 65 38 c36 20
68 37 72 37 4 1 8 -15 10 -35z m-38 -210 l47 -26 -52 -30 -52 -30 -46 25 c-25
14 -47 30 -48 34 -3 9 73 51 93 52 6 1 33 -11 58 -25z m501 4 c25 -12 44 -26
42 -31 -1 -4 -23 -20 -49 -34 l-46 -26 -52 30 -52 30 43 26 c55 32 59 32 114
5z m-624 -95 l49 -26 0 -59 c0 -32 -2 -58 -5 -58 -3 0 -27 12 -55 28 l-50 27
0 58 c0 31 3 57 6 57 4 0 28 -12 55 -27z m189 -31 l0 -59 -50 -27 -50 -27 0
59 c0 60 0 60 43 86 23 14 45 25 50 26 4 0 7 -26 7 -58z m316 32 l44 -26 0
-60 0 -59 -50 27 -50 27 0 59 c0 32 3 58 6 58 3 0 25 -12 50 -26z m194 -31 l0
-58 -50 -27 c-28 -16 -52 -28 -55 -28 -3 0 -5 26 -5 58 l0 59 48 26 c26 15 50
27 55 27 4 0 7 -26 7 -57z"/>
<path d="M825 450 c-106 -23 -161 -129 -137 -268 13 -79 44 -126 100 -153 81
-40 171 -9 212 72 20 38 20 39 1 39 -11 0 -26 2 -34 6 -9 3 -19 -6 -27 -26
-15 -36 -37 -50 -80 -50 -71 0 -95 43 -95 170 0 96 16 133 63 151 43 16 85 -2
111 -48 7 -13 15 -15 40 -7 l31 9 -19 32 c-35 56 -104 86 -166 73z"/>
<path d="M1235 445 c-57 -15 -105 -61 -105 -101 0 -65 47 -105 165 -139 76
-22 85 -29 85 -75 0 -51 -20 -65 -93 -65 -55 1 -62 3 -87 33 -23 28 -31 31
-58 26 -31 -6 -31 -7 -17 -34 34 -65 154 -99 238 -66 57 22 87 55 94 104 8 60
-30 97 -138 132 -102 34 -133 64 -108 108 13 24 22 27 72 30 54 3 58 2 74 -27
15 -25 22 -29 48 -24 41 8 42 10 23 41 -33 53 -114 77 -193 57z"/>
<path d="M226 408 c3 -18 18 -112 33 -208 l27 -175 34 0 34 0 21 90 c28 125
44 125 74 0 l23 -95 32 0 32 0 28 183 c16 100 31 194 33 210 5 25 3 27 -25 27
-16 0 -32 -6 -35 -13 -2 -7 -10 -70 -18 -140 -13 -137 -29 -163 -49 -84 -31
116 -32 118 -59 115 -23 -3 -28 -11 -46 -75 -11 -40 -25 -73 -31 -73 -11 0
-24 70 -40 213 -7 57 -7 57 -40 57 -31 0 -33 -1 -28 -32z"/>
</g>
</svg>
